<svg width="0" height="0" class="hidden">
  <symbol viewBox="0 0 14 12" xmlns="http://www.w3.org/2000/svg" id="mail">
    <path d="M14 3.003L7 7 0 3.003V2s0-2 2-2h10c2 0 2 2 2 2v1.003zM0 4l7 4 7-4v6s0 2-2 2H2c-2 0-2-2-2-2V4z"  fill-rule="evenodd"></path>
  </symbol>
  <symbol viewBox="0 0 14 14" xmlns="http://www.w3.org/2000/svg" id="phone">
    <path d="M13.993 11.049a.677.677 0 0 1-.207.593L11.815 13.6a1.11 1.11 0 0 1-.349.252 1.45 1.45 0 0 1-.422.133l-.089.008c-.05.005-.114.007-.193.007-.187 0-.491-.032-.911-.096-.42-.065-.934-.223-1.541-.475-.608-.252-1.297-.63-2.068-1.135-.77-.504-1.59-1.196-2.46-2.076a16.248 16.248 0 0 1-1.72-1.957A13.948 13.948 0 0 1 .967 6.533a9.31 9.31 0 0 1-.623-1.439c-.138-.43-.232-.8-.281-1.112a3.676 3.676 0 0 1-.06-.734c.01-.178.015-.277.015-.297.02-.138.065-.279.134-.422.069-.144.153-.26.252-.349L2.373.208A.653.653 0 0 1 2.849 0c.129 0 .242.037.341.111.099.074.183.166.252.275l1.586 3.01a.722.722 0 0 1 .074.52.925.925 0 0 1-.252.474l-.726.727a.247.247 0 0 0-.052.096.366.366 0 0 0-.022.111c.04.208.128.445.266.712.119.237.302.526.549.868.247.34.597.734 1.052 1.179.445.454.84.808 1.186 1.06.345.252.634.437.867.556.232.119.41.19.533.215l.185.037c.02 0 .052-.007.097-.022a.247.247 0 0 0 .096-.052l.845-.86a.907.907 0 0 1 .622-.237c.168 0 .302.03.4.089h.015l2.86 1.69c.208.129.332.292.371.49z"
      ></path>
  </symbol>
  <symbol viewBox="0 0 12 12" xmlns="http://www.w3.org/2000/svg" id="plus">
    <path d="M7 5V1s0-1-1-1-1 1-1 1v4H1S0 5 0 6s1 1 1 1h4v4s0 1 1 1 1-1 1-1V7h4s1 0 1-1-1-1-1-1H7z" ></path>
  </symbol>
  <symbol viewBox="0 0 18 16" xmlns="http://www.w3.org/2000/svg" id="reports">
    <path d="M17.272 0h.063c.218 0 .39.065.503.19.121.13.172.312.16.546l-.05 1.12c-.035.749-.07 1.493-.102 2.237-.008.174-.039.396-.207.57a.746.746 0 0 1-.164.126.55.55 0 0 1-.273.077c-.215 0-.355-.146-.457-.251l-.855-.882-6.557 6.83a.947.947 0 0 1-.679.291.94.94 0 0 1-.68-.29l-3.009-3.12-3.15 3.265a.932.932 0 0 1-1.354 0l-.18-.186a1.016 1.016 0 0 1 0-1.404L4.29 4.97a.931.931 0 0 1 1.354 0l3.01 3.119 5.698-5.944c-.195-.199-.39-.4-.581-.603l-.277-.291c-.11-.113-.34-.352-.176-.72a.603.603 0 0 1 .121-.186c.16-.166.363-.174.511-.182C15.06.109 16.164.052 17.272 0zM13 7.79v7.896c0 .171.149.314.336.314h2.328c.183 0 .336-.14.336-.314V4.654L13 7.79zm-8 7.855c0 .194.149.355.336.355h2.328A.346.346 0 0 0 8 15.645v-4.09L5 8.486v7.159zM9.336 16C9.149 16 9 15.864 9 15.701V11.82c.118-.068.233-.116.336-.208L12 8.81v6.89c0 .167-.153.299-.336.299H9.336zm-8 0C1.149 16 1 15.837 1 15.642V12.02c.632 0 .95-.39 1.31-.768L4 9.451v6.191c0 .2-.153.358-.336.358H1.336z"
       fill-rule="evenodd"></path>
  </symbol>
  <symbol viewBox="0 0 14 18" xmlns="http://www.w3.org/2000/svg" id="resume">
    <path d="M14 16s0 2-2 2H2c-2 0-2-2-2-2V5h5V0h7c2 0 2 2 2 2v14zM0 4l4-4v4H0zm11 3v1H3V7h8zm-8 3v1h8v-1H3zm0 4v-1h4v1H3z" fill-rule="evenodd"></path>
  </symbol>
  <symbol viewBox="0 0 12 16" xmlns="http://www.w3.org/2000/svg" id="shape">
    <path d="M12 16V2s0-2-2-2H2C0 0 0 2 0 2v14l6-4 6 4z" ></path>
  </symbol>
  <symbol viewBox="0 0 15 15" xmlns:xlink="http://www.w3.org/1999/xlink" xmlns="http://www.w3.org/2000/svg" id="star">
    <defs>
      <path d="M11.446 9.359a.54.54 0 0 0-.142.47l.854 5.144-4.408-2.418a.488.488 0 0 0-.47 0L2.887 15l.824-5.151a.545.545 0 0 0-.146-.467L0 5.747l4.92-.768a.503.503 0 0 0 .376-.29L7.48 0l2.216 4.677a.515.515 0 0 0 .38.29L15 5.704l-3.554 3.655z" id="a"></path>
      <clipPath id="b">
        <use xlink:href="#a"></use>
      </clipPath>
    </defs>
    <use xlink:href="#a"></use>
    <g clip-path="url(#b)">
      <use xlink:href="#a"></use>
    </g>
  </symbol>
  <symbol viewBox="0 0 16 16" xmlns="http://www.w3.org/2000/svg" id="archive">
    <path d="M15 0H1C0 0 0 1 0 1v2h16V1s0-1-1-1zm0 4H1v10s0 2 2 2h10c1.678 0 2-2 2-2V4zM7 6h2v4h2l-3 4-3-4h2V6z" fill-rule="evenodd"></path>
  </symbol>
  <symbol viewBox="0 0 18 16" xmlns="http://www.w3.org/2000/svg" id="clients">
    <path d="M11.414 2.746a3.481 3.481 0 0 1 1.522 2.567c.34.167.716.264 1.116.264 1.458 0 2.64-1.249 2.64-2.789S15.51 0 14.052 0c-1.444 0-2.616 1.226-2.638 2.746zM4.017 5.577c.517 0 .997-.16 1.404-.43.13-.892.582-1.67 1.228-2.201.003-.052.008-.104.008-.157 0-1.54-1.182-2.788-2.64-2.788-1.458 0-2.64 1.248-2.64 2.788 0 1.54 1.182 2.788 2.64 2.788zm7.756.09c0 1.54-1.182 2.788-2.64 2.788-1.458 0-2.64-1.248-2.64-2.788 0-1.54 1.182-2.788 2.64-2.788 1.458 0 2.64 1.248 2.64 2.788zM5.489 6.5c.027.9 1.011 2 1.011 2S4 9.337 4 12.22v.874C1.615 13.778 0 12 0 12V9.337C0 7.369 1.137 6.5 3.001 6.5H5.49zm7.288 0H15c1.863 0 3 .869 3 2.837V12s-.805 1.027-3 1.112v-.892c0-2.883-3.5-3.72-3.5-3.72s1.253-1.06 1.277-2zm-2.524 2.837h-2.24c-1.864 0-3.013.91-3.013 2.879v2.939S6.94 16 9.424 16C11.908 16 14 14.784 14 14.784v-2.568c0-1.969-1.884-2.88-3.747-2.88z"
       fill-rule="evenodd"></path>
  </symbol>
  <symbol viewBox="0 0 18 16" xmlns="http://www.w3.org/2000/svg" id="home">
    <path d="M18 9l-3-3.23V2h-2v2.096L9 0 0 9v1h2v6h5v-5h4v5h5v-6h2V9z" ></path>
  </symbol>
  <symbol viewBox="0 0 132 36" xmlns="http://www.w3.org/2000/svg" id="logo">
    <g fill-rule="evenodd">
      <path d="M25 6s1 0 1-1-1-1-1-1h-7V2s0-2-2-2h-6C8 0 8 2 8 2v2H1S0 4 0 5s1 1 1 1h24zm-9-2V2h-6v2h6zm6 4H4c-3 0-3 3-3 3v13.268A2 2 0 0 0 2 28a2 2 0 0 0 1-3.732V12s0-2 2-2h16c2 0 2 2 2 2v19s0 2.029-2 2H3.732a2 2 0 1 0 0 2H22c3 0 3-3 3-3V11s0-3-3-3zM9 14s0-1 1-1 1 1 1 1v15s0 1-1 1-1-1-1-1V14zm7-1c-1 0-1 1-1 1v15s0 1 1 1 1-1 1-1V14s0-1-1-1z"
        ></path>
      <path d="M38.182 15.926l.054-.055c1.491-1.501 3.291-2.252 5.4-2.252 2.11 0 3.91.751 5.4 2.252 1.491 1.502 2.237 3.315 2.237 5.439s-.746 3.936-2.237 5.438c-1.49 1.501-3.29 2.252-5.4 2.252-2.109 0-3.909-.75-5.4-2.252C36.746 25.246 36 23.434 36 21.31V8.099c0-.302.107-.561.32-.776.214-.215.47-.323.77-.323.3 0 .558.108.771.323.214.215.32.474.32.776v7.827zm18.416-4.634c.268-.27.402-.593.402-.969 0-.375-.134-.698-.402-.968a1.307 1.307 0 0 0-.962-.405c-.372 0-.693.135-.961.405s-.402.593-.402.968c0 .376.134.698.402.969.268.27.589.405.961.405.373 0 .693-.135.962-.405zm3.723 2.65a1.06 1.06 0 0 0-.321.776V27.9c0 .302.107.561.32.776.214.215.47.323.77.323.3 0 .558-.108.771-.323a1.06 1.06 0 0 0 .32-.776v-7.14c0-1.365.48-2.53 1.44-3.496.958-.966 2.115-1.449 3.47-1.449 1.354 0 2.511.483 3.47 1.45.96.965 1.439 2.13 1.439 3.494V27.9c0 .302.107.561.32.776.214.215.47.323.77.323.3 0 .558-.108.771-.323a1.06 1.06 0 0 0 .32-.776v-7.14c0-1.97-.692-3.651-2.079-5.048-1.386-1.396-3.056-2.094-5.011-2.094-1.91 0-3.545.664-4.91 1.991v-.892c0-.302-.106-.56-.32-.776a1.047 1.047 0 0 0-.77-.323c-.3 0-.557.108-.77.323zm53.134 12.75C111.927 28.232 110.109 29 108 29c-2.11 0-3.91-.75-5.4-2.252-1.49-1.502-2.236-3.314-2.236-5.438 0-2.124.745-3.937 2.236-5.439 1.49-1.501 3.29-2.252 5.4-2.252 2.11 0 3.91.751 5.4 2.252 1.49 1.502 2.236 3.315 2.236 5.439v6.59c0 .302-.106.561-.32.776-.214.215-.47.323-.77.323-.3 0-.557-.108-.771-.323a1.062 1.062 0 0 1-.32-.776v-1.208zm-58.91-11.974c0-.302.107-.56.32-.776a1.05 1.05 0 0 1 .771-.323c.3 0 .557.108.77.323.214.215.321.474.321.776V27.9c0 .302-.106.561-.32.776-.214.215-.47.323-.77.323-.3 0-.557-.108-.771-.323a1.062 1.062 0 0 1-.32-.776V14.718zm24 13.183c0 .302-.106.561-.32.776-.214.215-.47.323-.77.323-.3 0-.557-.108-.77-.323a1.062 1.062 0 0 1-.321-.776V14.718c0-.302.106-.56.32-.776.214-.215.47-.323.77-.323.3 0 .557.108.771.323.214.215.32.474.32.776v.288c1.082-.924 2.355-1.387 3.819-1.387 1.654 0 3.068.59 4.24 1.772.246.247.469.508.669.783.2-.275.422-.536.668-.783 1.173-1.181 2.586-1.772 4.24-1.772 1.655 0 3.069.59 4.242 1.772 1.173 1.18 1.759 2.604 1.759 4.27v8.24c0 .302-.107.561-.32.776a1.05 1.05 0 0 1-.771.323c-.3 0-.557-.108-.77-.323a1.062 1.062 0 0 1-.321-.776v-8.24c0-1.061-.373-1.968-1.118-2.718-.746-.751-1.646-1.127-2.7-1.127-1.055 0-1.955.376-2.7 1.127-.746.75-1.118 1.657-1.118 2.719v8.24c0 .301-.107.56-.32.775a1.05 1.05 0 0 1-.771.323c-.3 0-.557-.108-.77-.323a1.062 1.062 0 0 1-.321-.776v-8.24c0-1.061-.373-1.968-1.118-2.718-.746-.751-1.646-1.127-2.7-1.127-1.055 0-1.955.376-2.7 1.127-.746.75-1.119 1.657-1.119 2.719v8.24zm39.594-13.959a1.06 1.06 0 0 0-.32.776V27.9c0 .302.106.561.32.776.213.215.47.323.77.323.3 0 .557-.108.77-.323A1.06 1.06 0 0 0 120 27.9v-7.14c0-1.365.48-2.53 1.439-3.496.959-.966 2.116-1.449 3.47-1.449 1.355 0 2.511.483 3.47 1.45.96.965 1.44 2.13 1.44 3.494V27.9c0 .302.106.561.32.776.213.215.47.323.77.323.3 0 .557-.108.77-.323A1.06 1.06 0 0 0 132 27.9v-7.14c0-1.97-.693-3.651-2.08-5.048-1.386-1.396-3.056-2.094-5.01-2.094-1.91 0-3.546.664-4.91 1.991v-.892c0-.302-.107-.56-.32-.776a1.047 1.047 0 0 0-.77-.323c-.3 0-.558.108-.771.323zM47.495 25.196c-1.063 1.071-2.35 1.607-3.859 1.607s-2.795-.536-3.859-1.607c-1.063-1.071-1.595-2.367-1.595-3.886 0-1.52.532-2.816 1.595-3.887 1.064-1.07 2.35-1.607 3.86-1.607 1.508 0 2.795.536 3.858 1.607 1.064 1.071 1.596 2.367 1.596 3.887s-.532 2.815-1.596 3.886zm56.646-7.773c1.064-1.07 2.35-1.607 3.859-1.607 1.51 0 2.795.536 3.86 1.607 1.063 1.071 1.594 2.367 1.594 3.887s-.531 2.815-1.595 3.886c-1.064 1.071-2.35 1.607-3.859 1.607-1.51 0-2.795-.536-3.86-1.607-1.063-1.071-1.594-2.367-1.594-3.886 0-1.52.531-2.816 1.595-3.887z"
        ></path>
    </g>
  </symbol>
</svg>