<?xml version="1.0" encoding="utf-8"?>
<svg width="40px" height="40px" viewBox="0 0 40 40" version="1.1" xmlns:xlink="http://www.w3.org/1999/xlink" xmlns="http://www.w3.org/2000/svg">
  <desc>Created with Lunacy</desc>
  <defs>
    <path d="M20 40C31.0457 40 40 31.0457 40 20C40 8.9543 31.0457 0 20 0C8.9543 0 0 8.9543 0 20C0 31.0457 8.9543 40 20 40Z" id="path_1" />
    <clipPath id="mask_1">
      <use xlink:href="#path_1" />
    </clipPath>
  </defs>
  <g id="photo">
    <path d="M20 40C31.0457 40 40 31.0457 40 20C40 8.9543 31.0457 0 20 0C8.9543 0 0 8.9543 0 20C0 31.0457 8.9543 40 20 40Z" id="background" fill="#E8EFF1" stroke="none" />
    <path d="M12 2L14 2C16 2 16 4 16 4L16 12C16 12 16 14 14 14L2 14C0 14 0 12 0 12L0 4C0 4 0 2 2 2L4 2C4 2 4.99414 0 6 0L10 0C11 0 12 2 12 2ZM10.8259 10.8258C10.0431 11.6085 9.10126 12 7.99998 12C6.89871 12 5.9569 11.6085 5.17411 10.8258C4.39132 10.0431 4 9.10105 4 8.00003C4 6.89867 4.39144 5.95689 5.17411 5.1741C5.9568 4.39132 6.89874 4 7.99998 4C9.10123 4 10.0431 4.39141 10.8259 5.1741C11.6086 5.9568 12 6.89867 12 8.00003C12 9.10105 11.6087 10.043 10.8259 10.8258ZM6.58681 6.58687C6.97801 6.19561 7.44907 6 8 6C8.55086 6 9.02199 6.19563 9.41317 6.58687C9.80437 6.9781 10 7.44909 10 8.00013C10 8.551 9.80437 9.02204 9.41317 9.41325C9.02196 9.80439 8.55086 10 8 10C7.44904 10 6.97801 9.80439 6.58681 9.41325C6.1956 9.02204 6 8.55098 6 8.00013C6 7.44907 6.1956 6.97808 6.58681 6.58687Z" transform="translate(12 13)" id="photo" fill="#A3A9B1" fill-rule="evenodd" stroke="none" />
  </g>
</svg>